<?xml version="1.0" encoding="utf-8" ?>
<svg baseProfile="full" height="600px" version="1.1" width="500px" xmlns="http://www.w3.org/2000/svg" xmlns:ev="http://www.w3.org/2001/xml-events" xmlns:xlink="http://www.w3.org/1999/xlink"><defs><style type="text/css"><![CDATA[svg * { shape-rendering: crispEdges; }]]></style><radialGradient id="background_gradient"><stop offset="0" stop-color="#1e7b75" /><stop offset="1" stop-color="#0a2927" /></radialGradient><mask id="mask-200-0"><rect fill="white" height="100" width="100" x="200" y="0" /></mask><mask id="mask-200-500"><rect fill="white" height="100" width="100" x="200" y="500" /></mask><mask id="mask-300-0"><rect fill="white" height="100" width="100" x="300" y="0" /></mask></defs><rect fill="url(#background_gradient)" height="600" width="500" x="0" y="0" /><g class="draw-half-square"><rect fill="#b3e099" height="100" width="100" x="0" y="0" /><polygon fill="#1c2130" points="0,0 50.0,0 50.0,100 0,100" /></g><g class="draw-letter-block"><rect fill="#d14334" height="100" width="100" x="0" y="100" /><text fill="#1c2130" font-family="monospace" font-size="80.0" font-weight="bold" text-anchor="middle" x="50.0" y="180.0">V</text></g><g class="draw-diagonal-square"><rect fill="#1c2130" height="100" width="100" x="0" y="200" /><polygon fill="#b3e099" points="100,200 100,300 0,200" /></g><g class="draw-cross"><rect fill="#028f76" height="100" width="100" x="0" y="300" /><rect fill="#ffeaad" height="33.333333333333336" width="100" x="0" y="333.3333333333333" /><rect fill="#ffeaad" height="100" width="33.333333333333336" x="33.333333333333336" y="300" /></g><g class="draw-cross"><rect fill="#d14334" height="100" width="100" x="0" y="400" /><polygon fill="#1c2130" points="-5.892556509887896,405.89255650988787 94.1074434901121,505.89255650988787 105.8925565098879,494.10744349011213 5.892556509887896,394.10744349011213" /><polygon fill="#1c2130" points="94.1074434901121,394.10744349011213 -5.892556509887896,494.10744349011213 5.892556509887896,505.89255650988787 105.8925565098879,405.89255650988787" /></g><g class="draw-letter-block"><rect fill="#d14334" height="100" width="100" x="0" y="500" /><text fill="#b3e099" font-family="monospace" font-size="80.0" font-weight="bold" text-anchor="middle" x="50.0" y="580.0">4</text></g><g class="draw-dots"><rect fill="#d14334" height="100" width="100" x="100" y="0" /><circle cx="116.66666666666667" cy="16.666666666666668" fill="#ffeaad" r="10.0" /><circle cx="116.66666666666667" cy="50.0" fill="#ffeaad" r="10.0" /><circle cx="116.66666666666667" cy="83.33333333333334" fill="#ffeaad" r="10.0" /><circle cx="150.0" cy="16.666666666666668" fill="#ffeaad" r="10.0" /><circle cx="150.0" cy="50.0" fill="#ffeaad" r="10.0" /><circle cx="150.0" cy="83.33333333333334" fill="#ffeaad" r="10.0" /><circle cx="183.33333333333334" cy="16.666666666666668" fill="#ffeaad" r="10.0" /><circle cx="183.33333333333334" cy="50.0" fill="#ffeaad" r="10.0" /><circle cx="183.33333333333334" cy="83.33333333333334" fill="#ffeaad" r="10.0" /></g><g class="draw-dots"><rect fill="#d14334" height="100" width="100" x="100" y="100" /><circle cx="112.5" cy="112.5" fill="#028f76" r="7.5" /><circle cx="112.5" cy="137.5" fill="#028f76" r="7.5" /><circle cx="112.5" cy="162.5" fill="#028f76" r="7.5" /><circle cx="112.5" cy="187.5" fill="#028f76" r="7.5" /><circle cx="137.5" cy="112.5" fill="#028f76" r="7.5" /><circle cx="137.5" cy="137.5" fill="#028f76" r="7.5" /><circle cx="137.5" cy="162.5" fill="#028f76" r="7.5" /><circle cx="137.5" cy="187.5" fill="#028f76" r="7.5" /><circle cx="162.5" cy="112.5" fill="#028f76" r="7.5" /><circle cx="162.5" cy="137.5" fill="#028f76" r="7.5" /><circle cx="162.5" cy="162.5" fill="#028f76" r="7.5" /><circle cx="162.5" cy="187.5" fill="#028f76" r="7.5" /><circle cx="187.5" cy="112.5" fill="#028f76" r="7.5" /><circle cx="187.5" cy="137.5" fill="#028f76" r="7.5" /><circle cx="187.5" cy="162.5" fill="#028f76" r="7.5" /><circle cx="187.5" cy="187.5" fill="#028f76" r="7.5" /></g><g class="draw-letter-block"><rect fill="#1c2130" height="100" width="100" x="100" y="200" /><text fill="#028f76" font-family="monospace" font-size="80.0" font-weight="bold" text-anchor="middle" x="150.0" y="280.0">6</text></g><g class="draw-diagonal-square"><rect fill="#b3e099" height="100" width="100" x="100" y="300" /><polygon fill="#028f76" points="200,300 200,400 100,300" /></g><g class="draw-letter-block"><rect fill="#d14334" height="100" width="100" x="100" y="400" /><text fill="#ffeaad" font-family="monospace" font-size="80.0" font-weight="bold" text-anchor="middle" x="150.0" y="480.0">/</text></g><g class="draw-diagonal-square"><rect fill="#028f76" height="100" width="100" x="100" y="500" /><polygon fill="#1c2130" points="100,500 200,600 100,600" /></g><g class="opposite-circles"><rect fill="#b3e099" height="100" width="100" x="200" y="0" /><g mask="url(#mask-200-0)"><circle cx="300" cy="0" fill="#028f76" r="50.0" /><circle cx="200" cy="100" fill="#028f76" r="50.0" /></g></g><g class="draw-circle"><rect fill="#b3e099" height="100" width="100" x="200" y="100" /><circle cx="250.0" cy="150.0" fill="#d14334" r="50.0" /></g><g class="draw-quarter-circle"><rect fill="#b3e099" height="100" width="100" x="200" y="200" /><path d="M 200 300 A 100 100 0 0 1 200 200 L 200 300" fill="#d14334" /></g><g class="draw-half-square"><rect fill="#028f76" height="100" width="100" x="200" y="300" /><polygon fill="#b3e099" points="200,350.0 300,350.0 300,400 200,400" /></g><g class="draw-diagonal-square"><rect fill="#d14334" height="100" width="100" x="200" y="400" /><polygon fill="#ffeaad" points="300,400 300,500 200,400" /></g><g class="opposite-circles"><rect fill="#ffeaad" height="100" width="100" x="200" y="500" /><g mask="url(#mask-200-500)"><circle cx="300" cy="500" fill="#d14334" r="50.0" /><circle cx="200" cy="600" fill="#d14334" r="50.0" /></g></g><g class="opposite-circles"><rect fill="#b3e099" height="100" width="100" x="300" y="0" /><g mask="url(#mask-300-0)"><circle cx="300" cy="0" fill="#ffeaad" r="50.0" /><circle cx="400" cy="100" fill="#ffeaad" r="50.0" /></g></g><g class="draw-half-square"><rect fill="#028f76" height="100" width="100" x="300" y="100" /><polygon fill="#1c2130" points="300,150.0 400,150.0 400,200 300,200" /></g><g class="draw-dots"><rect fill="#d14334" height="100" width="100" x="300" y="200" /><circle cx="325.0" cy="225.0" fill="#ffeaad" r="15.0" /><circle cx="325.0" cy="275.0" fill="#ffeaad" r="15.0" /><circle cx="375.0" cy="225.0" fill="#ffeaad" r="15.0" /><circle cx="375.0" cy="275.0" fill="#ffeaad" r="15.0" /></g><g class="draw-cross"><rect fill="#1c2130" height="100" width="100" x="300" y="300" /><polygon fill="#028f76" points="294.10744349011213,305.89255650988787 394.10744349011213,405.89255650988787 405.89255650988787,394.10744349011213 305.89255650988787,294.10744349011213" /><polygon fill="#028f76" points="394.10744349011213,294.10744349011213 294.10744349011213,394.10744349011213 305.89255650988787,405.89255650988787 405.89255650988787,305.89255650988787" /></g><g class="draw-circle"><rect fill="#028f76" height="100" width="100" x="300" y="400" /><circle cx="350.0" cy="450.0" fill="#ffeaad" r="50.0" /></g><g class="draw-dots"><rect fill="#028f76" height="100" width="100" x="300" y="500" /><circle cx="312.5" cy="512.5" fill="#1c2130" r="7.5" /><circle cx="312.5" cy="537.5" fill="#1c2130" r="7.5" /><circle cx="312.5" cy="562.5" fill="#1c2130" r="7.5" /><circle cx="312.5" cy="587.5" fill="#1c2130" r="7.5" /><circle cx="337.5" cy="512.5" fill="#1c2130" r="7.5" /><circle cx="337.5" cy="537.5" fill="#1c2130" r="7.5" /><circle cx="337.5" cy="562.5" fill="#1c2130" r="7.5" /><circle cx="337.5" cy="587.5" fill="#1c2130" r="7.5" /><circle cx="362.5" cy="512.5" fill="#1c2130" r="7.5" /><circle cx="362.5" cy="537.5" fill="#1c2130" r="7.5" /><circle cx="362.5" cy="562.5" fill="#1c2130" r="7.5" /><circle cx="362.5" cy="587.5" fill="#1c2130" r="7.5" /><circle cx="387.5" cy="512.5" fill="#1c2130" r="7.5" /><circle cx="387.5" cy="537.5" fill="#1c2130" r="7.5" /><circle cx="387.5" cy="562.5" fill="#1c2130" r="7.5" /><circle cx="387.5" cy="587.5" fill="#1c2130" r="7.5" /></g><g class="draw-quarter-circle"><rect fill="#028f76" height="100" width="100" x="400" y="0" /><path d="M 400 0 A 100 100 0 0 1 500 0 L 400 0" fill="#d14334" /></g><g class="draw-letter-block"><rect fill="#028f76" height="100" width="100" x="400" y="100" /><text fill="#ffeaad" font-family="monospace" font-size="80.0" font-weight="bold" text-anchor="middle" x="450.0" y="180.0">Y</text></g><g class="draw-quarter-circle"><rect fill="#b3e099" height="100" width="100" x="400" y="200" /><path d="M 400 300 A 100 100 0 0 1 400 200 L 400 300" fill="#ffeaad" /></g><g class="draw-letter-block"><rect fill="#028f76" height="100" width="100" x="400" y="300" /><text fill="#b3e099" font-family="monospace" font-size="80.0" font-weight="bold" text-anchor="middle" x="450.0" y="380.0">Z</text></g><g class="draw-dots"><rect fill="#b3e099" height="100" width="100" x="400" y="400" /><circle cx="416.6666666666667" cy="416.6666666666667" fill="#d14334" r="10.0" /><circle cx="416.6666666666667" cy="450.0" fill="#d14334" r="10.0" /><circle cx="416.6666666666667" cy="483.33333333333337" fill="#d14334" r="10.0" /><circle cx="450.0" cy="416.6666666666667" fill="#d14334" r="10.0" /><circle cx="450.0" cy="450.0" fill="#d14334" r="10.0" /><circle cx="450.0" cy="483.33333333333337" fill="#d14334" r="10.0" /><circle cx="483.33333333333337" cy="416.6666666666667" fill="#d14334" r="10.0" /><circle cx="483.33333333333337" cy="450.0" fill="#d14334" r="10.0" /><circle cx="483.33333333333337" cy="483.33333333333337" fill="#d14334" r="10.0" /></g><g class="draw-cross"><rect fill="#1c2130" height="100" width="100" x="400" y="500" /><rect fill="#b3e099" height="33.333333333333336" width="100" x="400" y="533.3333333333334" /><rect fill="#b3e099" height="100" width="33.333333333333336" x="433.3333333333333" y="500" /></g><g class="draw-cross"><rect fill="#b3e099" height="300" width="300" x="200" y="300" /><rect fill="#1c2130" height="100.0" width="300" x="200" y="400.0" /><rect fill="#1c2130" height="300" width="100.0" x="300.0" y="300" /></g></svg>